ply
format ascii 1.0
comment VCGLIB generated
element vertex 292
property float x
property float y
property float z
property float nx
property float ny
property float nz
element face 452
property list uchar int vertex_indices
end_header
76.4828 24.0523 8.9181 -0.2020436 0.5533918 -0.8080446 
76.3344 23.0419 15.5032 -0.5565291 0.3336003 0.7609115 
76.3344 -20.0184 1.2507 -0.92387 0.06684813 -0.376823 
76.4828 -21.175 7.81 -0.3828555 -0.1613649 0.909606 
78.3144 24.1727 9.0901 0.7278994 0.4737966 -0.4956604 
78.1659 22.8699 15.6236 0.2021182 0.2426067 0.9488363 
78.166 -19.9926 1.1045 0.3825954 0.1613835 -0.9097122 
78.3144 -21.1492 7.6638 0.9675325 -0.04414806 0.2488611 
76.3344 24.1727 9.0901 -0.8364962 0.2612446 -0.4816901 
76.4828 22.8699 15.6236 -0.3205552 -0.005168807 0.9472158 
76.4828 -19.9926 1.1045 -0.3826604 0.1613784 -0.9096857 
76.3344 -21.1492 7.6638 -0.9239564 -0.06681168 0.3766176 
78.1659 24.0523 8.9181 0.3202682 0.3206542 -0.8914086 
78.3144 23.0419 15.5032 0.7336884 0.09920406 0.6722053 
78.3144 -20.0184 1.2507 0.8627896 0.08830833 -0.497791 
78.1659 -21.175 7.8099 0.3826629 -0.1613792 0.9096845 
-75.4332 -25.0062 -25.8586 0.8944272 0 -0.4472136 
-75.4332 -25.0062 25.7979 0.4472136 0 0.8944272 
-75.4332 -19.5609 -25.8586 0.4082483 0.4082483 -0.8164966 
-75.4332 -19.5609 25.7979 0.6666667 0.6666667 0.3333333 
-79.2191 -25.0062 -25.8586 -0.7071068 0 -0.7071068 
-79.2191 -25.0062 25.7979 -0.7071068 0 0.7071068 
-79.2191 -19.5609 -25.8586 -0.4082483 0.8164966 -0.4082483 
-79.2191 -19.5609 25.7979 -0.6666667 0.3333333 0.6666667 
-78.2502 20.2492 -21.829 0.4548582 -0.7319643 -0.5072793 
-78.2502 22.4507 -23.1318 0.4472136 -0.2533452 -0.8577973 
-78.2502 19.4317 -19.898 0.7156457 -0.6870654 -0.1256678 
-78.2502 22.4507 -15.6657 1 0 0 
-78.2502 19.5331 -17.2769 0.5795522 -0.797389 -0.1681964 
-78.2502 17.7614 -15.248 0.5630682 -0.6949761 -0.4471716 
-78.2502 17.1256 -13.0061 0.4506462 -0.8841948 -0.1229537 
-80.1647 20.2492 -21.829 -0.714589 -0.5749634 -0.3984717 
-80.1647 22.4507 -23.1318 -0.7071068 -0.200287 -0.6781483 
-80.1647 19.4317 -19.898 -0.4559498 -0.8754817 -0.16013 
-80.1647 19.5331 -17.2769 -0.5795523 -0.7260994 -0.3699986 
-80.1647 17.7614 -15.248 -0.5630683 -0.753767 -0.3388059 
-80.1647 17.1256 -13.0061 -0.8344893 -0.5457726 -0.07589365 
-80.1647 22.4507 -15.6657 -1 0 0 
-78.2502 21.2477 -22.7765 0.7169746 -0.3483019 -0.6038487 
-80.1647 21.2477 -22.7765 -0.4573269 -0.4443333 -0.7703376 
-78.2502 20.2492 23.4507 0.4548564 -0.7319775 0.5072619 
-78.2502 21.2476 24.3982 0.7169775 -0.3483087 0.6038413 
-78.2502 19.4317 21.5197 0.7156457 -0.6870655 0.1256676 
-78.2502 19.5331 18.8986 0.5795523 -0.797389 0.1681963 
-78.2502 17.7614 16.8697 0.5630682 -0.6949762 0.4471715 
-78.2502 22.4507 17.2874 1 0 0 
-78.2502 17.1256 14.6278 0.7101067 -0.6921456 0.1291631 
-78.2502 22.4507 24.7535 0.4472136 -0.2533273 0.8578026 
-80.1647 22.4507 24.7535 -0.7071068 -0.2002728 0.6781526 
-80.1647 20.2492 23.4507 -0.7145872 -0.5749746 0.3984586 
-80.1647 19.4317 21.5197 -0.4559498 -0.8754817 0.1601299 
-80.1647 19.5331 18.8986 -0.5795522 -0.7260994 0.3699985 
-80.1647 17.7614 16.8697 -0.5630683 -0.7537671 0.3388059 
-80.1647 17.1256 14.6278 -0.5579666 -0.8263652 0.07611746 
-80.1647 21.2476 24.3982 -0.4573299 -0.4443432 0.7703302 
-80.1647 22.4507 17.2874 -1 0 0 
78.2502 20.2491 -21.8289 -0.4548576 -0.7319598 -0.5072864 
78.2502 22.4506 -23.1317 -0.4472136 -0.2533469 -0.8577968 
78.2502 19.4316 -19.898 -0.7156463 -0.6870636 -0.1256743 
78.2502 22.4506 -15.6657 -1 0 0 
78.2502 19.533 -17.2768 -0.5795522 -0.7973889 -0.1681973 
78.2502 17.7613 -15.2479 -0.5630683 -0.694976 -0.4471717 
78.2502 17.1255 -13.006 -0.4506462 -0.8841948 -0.1229537 
80.1647 20.2491 -21.8289 0.7145884 -0.5749602 -0.3984775 
80.1647 22.4506 -23.1317 0.7071068 -0.2002883 -0.678148 
80.1647 19.4316 -19.898 0.4559505 -0.8754798 -0.1601385 
80.1647 19.533 -17.2768 0.5795522 -0.7260991 -0.3699991 
80.1647 17.7613 -15.2479 0.5630683 -0.753767 -0.3388059 
80.1647 17.1255 -13.006 0.8344893 -0.5457726 -0.07589365 
80.1647 22.4506 -15.6657 1 0 0 
78.2502 21.2476 -22.7764 -0.7169745 -0.3483022 -0.6038486 
80.1647 21.2476 -22.7764 0.4573268 -0.4443337 -0.7703375 
78.2502 20.2491 23.4508 -0.4548564 -0.7319779 0.5072614 
78.2502 21.2475 24.3983 -0.7169776 -0.3483086 0.6038413 
78.2502 19.4316 21.5198 -0.7156456 -0.6870655 0.125668 
78.2502 19.533 18.8986 -0.5795522 -0.7973889 0.1681973 
78.2502 17.7613 16.8697 -0.5630683 -0.694976 0.4471717 
78.2502 22.4506 17.2875 -1 0 0 
78.2502 17.1255 14.6278 -0.7101067 -0.6921456 0.1291631 
78.2502 22.4506 24.7536 -0.4472136 -0.253326 0.857803 
80.1647 22.4506 24.7536 0.7071068 -0.2002718 0.6781529 
80.1647 20.2491 23.4508 0.7145872 -0.574975 0.3984582 
80.1647 19.4316 21.5198 0.4559497 -0.8754817 0.1601303 
80.1647 19.533 18.8986 0.5795522 -0.7260991 0.3699991 
80.1647 17.7613 16.8697 0.5630683 -0.753767 0.338806 
80.1647 17.1255 14.6278 0.5579666 -0.8263652 0.07611746 
80.1647 21.2475 24.3983 0.45733 -0.444343 0.7703303 
80.1647 22.4506 17.2875 1 0 0 
75.4332 -25.0063 -25.8585 -0.8944272 0 -0.4472136 
75.4332 -25.0063 25.798 -0.4472136 0 0.8944272 
75.4332 -19.561 -25.8585 -0.4082483 0.4082483 -0.8164966 
75.4332 -19.561 25.798 -0.6666667 0.6666667 0.3333333 
79.2191 -25.0063 -25.8585 0.7071068 0 -0.7071068 
79.2191 -25.0063 25.798 0.7071068 0 0.7071068 
79.2191 -19.561 -25.8585 0.4082483 0.8164966 -0.4082483 
79.2191 -19.561 25.798 0.6666667 0.3333333 0.6666667 
-76.4828 -21.0545 -7.8213 0.2020441 -0.5533951 -0.8080422 
-76.3344 -20.0441 -1.2362 0.5565287 -0.3336021 0.760911 
-76.3344 23.0162 -15.4887 0.9238701 -0.06684808 -0.3768228 
-76.4828 24.1728 -8.9294 0.382868 0.1613634 0.909601 
-78.3144 -21.1749 -7.6493 -0.7278998 -0.4737991 -0.4956574 
-78.1659 -19.8721 -1.1158 -0.2021862 -0.2426322 0.9488153 
-78.166 22.9904 -15.6349 -0.3825952 -0.1613835 -0.9097122 
-78.3144 24.147 -9.0756 -0.9675581 0.04413033 0.2487644 
-76.3344 -21.1749 -7.6493 0.8364968 -0.2612457 -0.4816887 
-76.4828 -19.8721 -1.1158 0.3205663 0.005167798 0.947212 
-76.4828 22.9904 -15.6349 0.3826606 -0.1613784 -0.9096856 
-76.3344 24.147 -9.0756 0.9239559 0.06681187 0.3766187 
-78.1659 -21.0545 -7.8213 -0.3202684 -0.3206554 -0.891408 
-78.3144 -20.0441 -1.2362 -0.7338208 -0.09922931 0.672057 
-78.3144 23.0162 -15.4887 -0.8627895 -0.08830833 -0.4977911 
-78.166 24.1728 -8.9294 -0.3828016 0.1613677 0.9096282 
-78.1698 1.0117 -8.7805 0.8944126 -0.07765048 -0.4404504 
-78.1697 1.2095 -7.6584 0.4472214 0.155325 0.8808333 
-78.1698 4.8827 -9.463 0.4082431 0.2602547 -0.8749887 
-78.1698 5.0806 -8.341 0.666676 0.7144296 0.2124465 
-82.708 1.0117 -8.7805 -0.707103 -0.1227864 -0.6963684 
-82.708 4.8827 -9.4631 -0.4082368 0.7331856 -0.5438582 
-82.708 5.0806 -8.341 -0.6666722 0.4440396 0.598646 
-82.708 1.2095 -7.6584 -0.7071068 0.1227913 0.6963636 
-76.4828 24.0524 8.9181 0.2019566 0.5532616 -0.8081554 
-76.3344 23.042 15.5031 0.5565284 0.3336009 0.7609116 
-76.3344 -20.0183 1.2506 0.9238065 0.06687489 -0.3769739 
-76.4828 -21.1749 7.8099 0.3828678 -0.1613634 0.9096011 
-78.3144 24.1728 9.09 -0.7278576 0.473713 -0.4958017 
-78.1659 22.87 15.6235 -0.2021862 0.2426313 0.9488155 
-78.166 -19.9925 1.1045 -0.3825188 0.1613886 -0.9097434 
-78.3144 -21.1491 7.6637 -0.9675582 -0.04413031 0.2487643 
-76.3344 24.1728 9.09 0.8363983 0.2612326 -0.4818666 
-76.4828 22.87 15.6235 0.3205661 -0.005168162 0.9472121 
-76.4828 -19.9925 1.1045 0.3825071 0.1613895 -0.9097482 
-76.3344 -21.1491 7.6637 0.9239559 -0.0668119 0.3766188 
-78.166 24.0524 8.9181 -0.3201942 0.3206075 -0.891452 
-78.3144 23.042 15.5031 -0.7338208 0.09922886 0.672057 
-78.3144 -20.0183 1.2506 -0.8627316 0.08832502 -0.4978884 
-78.166 -21.1749 7.8099 -0.3828018 -0.1613677 0.9096281 
-78.1698 1.0117 8.7691 0.8944428 -0.07766777 0.4403861 
-78.1698 1.2095 7.647 0.4471981 0.1553051 -0.8808486 
-78.1697 4.8827 9.4517 0.4082513 0.2602524 0.8749855 
-78.1698 5.0806 8.3296 0.6666686 0.7144172 -0.2125115 
-82.708 1.0117 8.7691 -0.7071068 -0.1227945 0.6963631 
-82.708 4.8827 9.4517 -0.4082445 0.7331846 0.5438537 
-82.708 5.0806 8.3296 -0.6666774 0.4440301 -0.5986474 
-82.708 1.2095 7.6471 -0.7071106 0.1227821 -0.6963614 
86.706 22.0755 17.8176 0.2379823 -0.336557 -0.9110948 
-86.706 22.0756 17.8176 -0.3447427 -0.7313068 -0.5885091 
87.014 22.0755 29.3679 0.9110951 -0.3365568 0.2379816 
-87.014 22.0756 29.3679 -0.4945705 -0.8194307 0.2897126 
86.706 24.6904 17.8176 0.4533762 0.2924032 -0.841992 
-87.014 24.6905 18.1256 -0.8419942 0.2924023 -0.4533727 
87.014 24.6904 29.3679 0.8419933 0.2924021 0.4533745 
-86.706 24.6905 29.6759 -0.4533744 0.2924021 0.8419933 
87.014 22.0755 18.1256 0.4945709 -0.8194309 -0.2897116 
-87.014 22.0756 18.1256 -0.9110954 -0.3365566 -0.2379807 
86.706 22.0755 29.6759 0.344741 -0.7313067 0.5885103 
-86.706 22.0756 29.6759 -0.2379817 -0.3365567 0.9110951 
86.706 24.9984 18.1256 0.2440798 0.8928627 -0.378446 
87.014 24.6904 18.1256 0.8928638 0.3784447 -0.2440775 
-86.706 24.9985 18.1256 -0.453376 0.841992 -0.2924032 
-86.706 24.6905 17.8176 -0.2440792 0.3784461 -0.8928628 
86.706 24.9984 29.3679 0.4533762 0.8419915 0.2924043 
86.706 24.6904 29.6759 0.2440787 0.3784446 0.8928635 
-86.706 24.9985 29.3679 -0.244079 0.8928623 0.3784476 
-87.014 24.6905 29.3679 -0.8928636 0.3784446 0.2440785 
-86.706 22.0835 -17.8176 -0.2379826 -0.3365569 0.9110948 
86.706 22.0834 -17.8176 0.3447422 -0.7313068 0.5885094 
-87.014 22.0835 -29.3679 -0.9110951 -0.3365567 -0.2379816 
87.014 22.0834 -29.3679 0.4945281 -0.8194388 -0.2897619 
-86.706 24.6984 -17.8176 -0.4533759 0.2924041 0.8419918 
87.014 24.6983 -18.1256 0.8419942 0.2924023 0.4533727 
-87.014 24.6984 -29.3679 -0.8419929 0.2924033 -0.4533744 
86.706 24.6983 -29.6758 0.4532904 0.2923635 -0.8420519 
-87.014 22.0835 -18.1256 -0.4945713 -0.8194305 0.2897117 
87.014 22.0834 -18.1256 0.9110954 -0.3365566 0.2379808 
-86.706 22.0835 -29.6759 -0.3447414 -0.7313066 -0.58851 
86.706 22.0834 -29.6758 0.2379374 -0.3365481 -0.9111099 
-86.706 25.0064 -18.1256 -0.2440782 0.8928635 0.3784451 
-87.014 24.6984 -18.1256 -0.8928632 0.3784462 0.2440774 
86.706 25.0063 -18.1256 0.4533763 0.841992 0.2924029 
86.706 24.6983 -17.8176 0.2440796 0.3784465 0.8928624 
-86.706 25.0064 -29.3679 -0.4533775 0.8419858 -0.2924187 
-86.706 24.6984 -29.6759 -0.2440753 0.3784198 -0.892875 
86.706 25.0063 -29.3679 0.2440717 0.8928428 -0.3784981 
87.014 24.6983 -29.3679 0.8928509 0.3784416 -0.2441294 
-86.706 22.0835 -5.9527 -0.2379824 -0.3365569 0.9110949 
86.706 22.0834 -5.9527 0.3447419 -0.7313067 0.5885096 
-87.014 22.0835 -17.503 -0.9110954 -0.3365566 -0.2379807 
87.014 22.0834 -17.5029 0.4945709 -0.8194309 -0.2897116 
-86.706 24.6984 -5.9527 -0.4533755 0.2924038 0.8419921 
87.014 24.6983 -6.2607 0.8419939 0.2924023 0.4533731 
-87.014 24.6984 -17.503 -0.8419937 0.2924035 -0.4533727 
86.706 24.6983 -17.8109 0.4533764 0.2924034 -0.8419917 
-87.014 22.0835 -6.2607 -0.4945711 -0.8194306 0.2897119 
87.014 22.0834 -6.2607 0.9110953 -0.3365566 0.2379809 
-86.706 22.0835 -17.811 -0.3447425 -0.7313069 -0.5885091 
86.706 22.0834 -17.8109 0.2379827 -0.336557 -0.9110947 
-86.706 25.0064 -6.2607 -0.2440782 0.8928632 0.3784456 
-87.014 24.6984 -6.2607 -0.8928632 0.3784462 0.2440777 
86.706 25.0063 -6.2607 0.4533762 0.8419919 0.2924032 
86.706 24.6983 -5.9527 0.2440794 0.3784462 0.8928627 
-86.706 25.0064 -17.503 -0.4533743 0.8419933 -0.2924025 
-86.706 24.6984 -17.811 -0.2440787 0.3784471 -0.8928624 
86.706 25.0063 -17.5029 0.2440798 0.8928629 -0.3784455 
87.014 24.6983 -17.5029 0.8928638 0.3784447 -0.2440775 
-86.706 22.0835 5.9235 -0.2379824 -0.3365569 0.9110949 
86.706 22.0834 5.9235 0.3447419 -0.7313067 0.5885096 
-87.014 22.0835 -5.6268 -0.9110953 -0.3365566 -0.2379809 
87.014 22.0834 -5.6268 0.4945752 -0.8194273 -0.2897145 
-86.706 24.6984 5.9235 -0.4533755 0.2924038 0.8419921 
87.014 24.6983 5.6155 0.8419939 0.2924023 0.4533731 
-87.014 24.6984 -5.6268 -0.8419935 0.2924035 -0.4533731 
86.706 24.6983 -5.9347 0.4533738 0.2924185 -0.8419879 
-87.014 22.0835 5.6155 -0.4945711 -0.8194306 0.2897119 
87.014 22.0834 5.6155 0.9110953 -0.3365566 0.2379809 
-86.706 22.0835 -5.9348 -0.3447435 -0.7313046 -0.5885113 
86.706 22.0834 -5.9348 0.237984 -0.3365375 -0.9111016 
-86.706 25.0064 5.6155 -0.2440782 0.8928632 0.3784456 
-87.014 24.6984 5.6155 -0.8928632 0.3784462 0.2440777 
86.706 25.0063 5.6155 0.4533762 0.8419919 0.2924032 
86.706 24.6983 5.9235 0.2440794 0.3784462 0.8928627 
-86.706 25.0064 -5.6268 -0.4533742 0.8419932 -0.2924028 
-86.706 24.6984 -5.9348 -0.2440779 0.3784529 -0.8928602 
86.706 25.0063 -5.6267 0.2440798 0.8928627 -0.3784459 
87.014 24.6983 -5.6267 0.892862 0.3784491 -0.2440773 
86.706 22.0834 5.9415 0.2379376 -0.3365482 -0.9111098 
-86.706 22.0835 5.9414 -0.3447422 -0.7313068 -0.5885094 
87.014 22.0834 17.4917 0.9110954 -0.3365566 0.2379808 
-87.014 22.0835 17.4917 -0.4945713 -0.8194305 0.2897117 
86.706 24.6983 5.9415 0.4532908 0.2923639 -0.8420516 
-87.014 24.6984 6.2494 -0.8419935 0.2924035 -0.4533731 
87.014 24.6983 17.4917 0.8419941 0.2924023 0.4533727 
-86.706 24.6984 17.7997 -0.4533759 0.2924041 0.8419918 
87.014 22.0834 6.2494 0.4945283 -0.8194388 -0.2897617 
-87.014 22.0835 6.2494 -0.9110953 -0.3365566 -0.2379809 
86.706 22.0834 17.7997 0.3447422 -0.7313068 0.5885094 
-86.706 22.0835 17.7997 -0.2379826 -0.3365569 0.9110948 
86.706 25.0063 6.2494 0.2440717 0.8928431 -0.3784975 
87.014 24.6983 6.2494 0.8928511 0.3784417 -0.2441292 
-86.706 25.0064 6.2494 -0.4533775 0.8419861 -0.292418 
-86.706 24.6984 5.9414 -0.2440759 0.3784207 -0.8928745 
86.706 25.0063 17.4917 0.4533763 0.841992 0.2924029 
86.706 24.6983 17.7997 0.2440796 0.3784465 0.8928624 
-86.706 25.0064 17.4917 -0.2440783 0.8928635 0.3784451 
-87.014 24.6984 17.4917 -0.8928632 0.3784462 0.2440774 
76.4828 -21.0546 -7.8212 -0.2020103 -0.5534375 -0.8080216 
76.3344 -20.0441 -1.2362 -0.5564961 -0.3337466 0.7608714 
76.3344 23.0161 -15.4886 -0.9238383 -0.06686106 -0.3768984 
76.4828 24.1727 -8.9294 -0.3827772 0.1613696 0.9096381 
78.3144 -21.1749 -7.6493 0.7278498 -0.4738535 -0.495679 
78.1659 -19.8722 -1.1158 0.2021138 -0.2427471 0.9488013 
78.1659 22.9904 -15.6348 0.3824414 -0.1613936 -0.9097751 
78.3144 24.1469 -9.0755 0.9675301 0.0441492 0.2488705 
76.3344 -21.1749 -7.6493 -0.8364602 -0.2612779 -0.4817347 
76.4828 -19.8722 -1.1158 -0.3205018 0.005128175 0.9472341 
76.4828 22.9904 -15.6348 -0.3825839 -0.1613833 -0.909717 
76.3344 24.1469 -9.0755 -0.9239184 0.06682736 0.376708 
78.1659 -21.0546 -7.8212 0.3201452 -0.3206715 -0.8914465 
78.3144 -20.0441 -1.2362 0.7336942 -0.09927346 0.6721888 
78.3144 23.0161 -15.4886 0.862673 -0.08834196 -0.497987 
78.1659 24.1727 -8.9294 0.3826348 0.1613799 0.9096962 
78.1697 1.0116 -8.7804 -0.8944282 -0.07765619 -0.4404177 
78.1697 1.2094 -7.6584 -0.4472136 0.1552982 0.8808419 
78.1697 4.8826 -9.463 -0.4082502 0.2602582 -0.8749843 
78.1697 5.0805 -8.3409 -0.6666752 0.7144195 0.2124828 
82.708 1.0116 -8.7805 0.707103 -0.1227864 -0.6963684 
82.708 4.8826 -9.463 0.408239 0.7331878 -0.5438535 
82.708 5.0805 -8.3409 0.6666752 0.4440252 0.5986533 
82.708 1.2094 -7.6584 0.7071068 0.122774 0.6963667 
78.1698 1.0116 8.7692 -0.894397 -0.077667 0.4404791 
78.1697 1.2094 7.6471 -0.4472292 0.155319 -0.8808304 
78.1698 4.8826 9.4517 -0.4082379 0.2602432 0.8749945 
78.1697 5.0805 8.3297 -0.6666863 0.7144272 -0.2124223 
82.708 1.0116 8.7692 0.707103 -0.1227864 0.6963684 
82.708 4.8826 9.4518 0.4082367 0.7331854 0.5438586 
82.708 5.0805 8.3297 0.6666723 0.4440397 -0.5986458 
82.708 1.2094 7.6471 0.7071068 0.1227915 -0.6963636 
-85.7384 -3.7694 -8.5944 -0.6666703 -0.4440378 -0.5986496 
-85.7384 -3.3468 -6.1981 -0.4082454 -0.7331893 0.5438465 
-85.7384 2.1615 -9.6402 -0.4082447 0.7331896 -0.5438468 
-85.7384 2.5841 -7.2439 -0.66667 0.4440379 0.5986496 
85.7384 -3.7695 -8.5944 0.66667 -0.7144232 -0.2124868 
85.7384 -3.3469 -6.1981 0.4082449 -0.2602561 0.8749874 
85.7384 2.1614 -9.6402 0.4082451 0.2602561 -0.8749872 
85.7384 2.584 -7.2439 0.6666704 0.7144229 0.2124867 
-85.7384 2.1615 9.6289 -0.4082462 0.7331988 0.5438333 
-85.7384 -3.7694 8.5831 -0.6666682 -0.4440321 0.5986561 
-85.7384 -3.3468 6.1868 -0.4082488 -0.7331985 -0.5438318 
-85.7384 2.5841 7.2326 -0.666667 0.4440372 -0.5986537 
85.7384 2.1614 9.6289 0.4082467 0.2602652 0.8749838 
85.7384 -3.7695 8.5832 0.6666675 -0.7144209 0.2125022 
85.7384 2.5839 7.2326 0.6666676 0.7144219 -0.212499 
85.7384 -3.347 6.1868 0.4082482 -0.2602597 -0.8749848 
3 8 2 11 
3 8 11 1 
3 4 13 7 
3 4 7 14 
3 9 3 15 
3 9 15 5 
3 10 0 12 
3 10 12 6 
3 8 0 10 
3 8 10 2 
3 11 3 9 
3 11 9 1 
3 13 5 15 
3 13 15 7 
3 14 6 12 
3 14 12 4 
3 5 13 1 
3 5 1 9 
3 0 8 4 
3 0 4 12 
3 16 18 19 
3 16 19 17 
3 20 21 23 
3 20 23 22 
3 17 19 23 
3 17 23 21 
3 19 18 22 
3 19 22 23 
3 18 16 20 
3 18 20 22 
3 24 38 27 
3 26 24 27 
3 28 26 27 
3 29 28 27 
3 30 29 27 
3 24 26 33 
3 24 33 31 
3 28 34 33 
3 28 33 26 
3 29 35 34 
3 29 34 28 
3 30 36 35 
3 30 35 29 
3 31 37 39 
3 33 37 31 
3 34 37 33 
3 35 37 34 
3 36 37 35 
3 24 31 39 
3 24 39 38 
3 27 38 25 
3 39 37 32 
3 25 38 39 
3 25 39 32 
3 36 53 55 
3 36 55 37 
3 30 46 53 
3 30 53 36 
3 27 45 46 
3 27 46 30 
3 40 45 41 
3 42 45 40 
3 43 45 42 
3 44 45 43 
3 46 45 44 
3 40 49 50 
3 40 50 42 
3 43 42 50 
3 43 50 51 
3 44 43 51 
3 44 51 52 
3 46 44 52 
3 46 52 53 
3 49 54 55 
3 50 49 55 
3 51 50 55 
3 52 51 55 
3 53 52 55 
3 40 41 54 
3 40 54 49 
3 45 47 41 
3 54 48 55 
3 47 48 54 
3 47 54 41 
3 56 59 70 
3 58 59 56 
3 60 59 58 
3 61 59 60 
3 62 59 61 
3 56 63 65 
3 56 65 58 
3 60 58 65 
3 60 65 66 
3 61 60 66 
3 61 66 67 
3 62 61 67 
3 62 67 68 
3 63 71 69 
3 65 63 69 
3 66 65 69 
3 67 66 69 
3 68 67 69 
3 56 70 71 
3 56 71 63 
3 59 57 70 
3 71 64 69 
3 57 64 71 
3 57 71 70 
3 68 69 87 
3 68 87 85 
3 62 68 85 
3 62 85 78 
3 59 62 78 
3 59 78 77 
3 72 73 77 
3 74 72 77 
3 75 74 77 
3 76 75 77 
3 78 76 77 
3 72 74 82 
3 72 82 81 
3 75 83 82 
3 75 82 74 
3 76 84 83 
3 76 83 75 
3 78 85 84 
3 78 84 76 
3 81 87 86 
3 82 87 81 
3 83 87 82 
3 84 87 83 
3 85 87 84 
3 72 81 86 
3 72 86 73 
3 77 73 79 
3 86 87 80 
3 79 73 86 
3 79 86 80 
3 88 89 91 
3 88 91 90 
3 92 94 95 
3 92 95 93 
3 89 93 95 
3 89 95 91 
3 91 95 94 
3 91 94 90 
3 90 94 92 
3 90 92 88 
3 104 98 107 
3 104 107 97 
3 100 109 103 
3 100 103 110 
3 105 99 111 
3 105 111 101 
3 106 96 108 
3 106 108 102 
3 104 96 106 
3 104 106 98 
3 107 99 105 
3 107 105 97 
3 109 101 111 
3 109 111 103 
3 110 102 108 
3 110 108 100 
3 101 109 97 
3 101 97 105 
3 96 104 100 
3 96 100 108 
3 115 113 112 
3 115 112 114 
3 118 119 113 
3 118 113 115 
3 117 118 115 
3 117 115 114 
3 116 117 114 
3 116 114 112 
3 116 119 118 
3 116 118 117 
3 128 121 131 
3 128 131 122 
3 124 134 127 
3 124 127 133 
3 129 125 135 
3 129 135 123 
3 130 126 132 
3 130 132 120 
3 128 122 130 
3 128 130 120 
3 131 121 129 
3 131 129 123 
3 133 127 135 
3 133 135 125 
3 134 124 132 
3 134 132 126 
3 125 129 121 
3 125 121 133 
3 120 132 124 
3 120 124 128 
3 139 138 136 
3 139 136 137 
3 142 139 137 
3 142 137 143 
3 141 138 139 
3 141 139 142 
3 140 136 138 
3 140 138 141 
3 140 141 142 
3 140 142 143 
3 152 146 154 
3 152 154 147 
3 154 155 147 
3 145 152 147 
3 145 147 153 
3 144 152 145 
3 156 158 162 
3 156 162 160 
3 144 145 159 
3 144 159 148 
3 153 147 163 
3 153 163 149 
3 155 154 161 
3 155 161 151 
3 146 152 157 
3 146 157 150 
3 148 156 157 
3 149 158 159 
3 150 160 161 
3 151 162 163 
3 156 148 159 
3 156 159 158 
3 158 149 163 
3 158 163 162 
3 162 151 161 
3 162 161 160 
3 160 150 157 
3 160 157 156 
3 145 153 149 
3 145 149 159 
3 148 157 152 
3 148 152 144 
3 147 155 151 
3 147 151 163 
3 154 146 150 
3 154 150 161 
3 172 166 174 
3 172 174 167 
3 174 175 167 
3 165 172 167 
3 165 167 173 
3 164 172 165 
3 176 178 182 
3 176 182 180 
3 164 165 179 
3 164 179 168 
3 173 167 183 
3 173 183 169 
3 175 174 181 
3 175 181 171 
3 166 172 177 
3 166 177 170 
3 168 176 177 
3 169 178 179 
3 170 180 181 
3 171 182 183 
3 176 168 179 
3 176 179 178 
3 178 169 183 
3 178 183 182 
3 182 171 181 
3 182 181 180 
3 180 170 177 
3 180 177 176 
3 165 173 169 
3 165 169 179 
3 168 177 172 
3 168 172 164 
3 167 175 171 
3 167 171 183 
3 174 166 170 
3 174 170 181 
3 192 186 194 
3 192 194 187 
3 194 195 187 
3 185 192 187 
3 185 187 193 
3 184 192 185 
3 196 198 202 
3 196 202 200 
3 184 185 199 
3 184 199 188 
3 193 187 203 
3 193 203 189 
3 195 194 201 
3 195 201 191 
3 186 192 197 
3 186 197 190 
3 188 196 197 
3 189 198 199 
3 190 200 201 
3 191 202 203 
3 196 188 199 
3 196 199 198 
3 198 189 203 
3 198 203 202 
3 202 191 201 
3 202 201 200 
3 200 190 197 
3 200 197 196 
3 185 193 189 
3 185 189 199 
3 188 197 192 
3 188 192 184 
3 187 195 191 
3 187 191 203 
3 194 186 190 
3 194 190 201 
3 212 206 214 
3 212 214 207 
3 214 215 207 
3 205 212 207 
3 205 207 213 
3 204 212 205 
3 216 218 222 
3 216 222 220 
3 204 205 219 
3 204 219 208 
3 213 207 223 
3 213 223 209 
3 215 214 221 
3 215 221 211 
3 206 212 217 
3 206 217 210 
3 208 216 217 
3 209 218 219 
3 210 220 221 
3 211 222 223 
3 216 208 219 
3 216 219 218 
3 218 209 223 
3 218 223 222 
3 222 211 221 
3 222 221 220 
3 220 210 217 
3 220 217 216 
3 205 213 209 
3 205 209 219 
3 208 217 212 
3 208 212 204 
3 207 215 211 
3 207 211 223 
3 214 206 210 
3 214 210 221 
3 232 226 234 
3 232 234 227 
3 234 235 227 
3 225 232 227 
3 225 227 233 
3 224 232 225 
3 236 238 242 
3 236 242 240 
3 224 225 239 
3 224 239 228 
3 233 227 243 
3 233 243 229 
3 235 234 241 
3 235 241 231 
3 226 232 237 
3 226 237 230 
3 228 236 237 
3 229 238 239 
3 230 240 241 
3 231 242 243 
3 236 228 239 
3 236 239 238 
3 238 229 243 
3 238 243 242 
3 242 231 241 
3 242 241 240 
3 240 230 237 
3 240 237 236 
3 225 233 229 
3 225 229 239 
3 228 237 232 
3 228 232 224 
3 227 235 231 
3 227 231 243 
3 234 226 230 
3 234 230 241 
3 252 245 255 
3 252 255 246 
3 248 258 251 
3 248 251 257 
3 253 249 259 
3 253 259 247 
3 254 250 256 
3 254 256 244 
3 252 246 254 
3 252 254 244 
3 255 245 253 
3 255 253 247 
3 257 251 259 
3 257 259 249 
3 258 248 256 
3 258 256 250 
3 249 253 245 
3 249 245 257 
3 244 256 248 
3 244 248 252 
3 263 262 260 
3 263 260 261 
3 266 263 261 
3 266 261 267 
3 265 262 263 
3 265 263 266 
3 264 260 262 
3 264 262 265 
3 264 265 266 
3 264 266 267 
3 271 269 268 
3 271 268 270 
3 274 275 269 
3 274 269 271 
3 273 274 271 
3 273 271 270 
3 272 273 270 
3 272 270 268 
3 272 275 274 
3 272 274 273 
3 276 277 279 
3 276 279 278 
3 276 278 282 
3 276 282 280 
3 278 279 283 
3 278 283 282 
3 279 277 281 
3 279 281 283 
3 277 276 280 
3 277 280 281 
3 283 281 280 
3 283 280 282 
3 285 284 287 
3 285 287 286 
3 285 289 288 
3 285 288 284 
3 284 288 290 
3 284 290 287 
3 287 290 291 
3 287 291 286 
3 286 291 289 
3 286 289 285 
3 290 288 289 
3 290 289 291 
